<?xml version="1.0" encoding="iso-8859-1"?>
<!-- Generator: Adobe Illustrator 19.0.0, SVG Export Plug-In . SVG Version: 6.00 Build 0)  -->
<svg version="1.1" id="Capa_1" xmlns="http://www.w3.org/2000/svg" xmlns:xlink="http://www.w3.org/1999/xlink" x="0px" y="0px"
	 viewBox="0 0 496 496" style="enable-background:new 0 0 496 496;" xml:space="preserve">
<path style="fill:#FFA64D;" d="M327.47,363.76c15.92-15.92,34.984-24.224,49.016-22.776V168h-368v256h300.352
	C298.83,410.728,306.678,384.552,327.47,363.76z"/>
<g>
	<path style="fill:#333333;" d="M317.43,352l28-56l-28-56h-64l-24-48h-73.888l-24,48h-64l-28,56l28,56h64l24,48h73.888l24-48H317.43
		z M327.542,296l-20,40H253.43l-20-40l20-40h54.112L327.542,296z M165.43,208h54.112l20,40l-20,40H165.43l-20-40L165.43,208z
		 M57.43,296l20-40h54.112l20,40l-20,40H77.43L57.43,296z M219.542,384H165.43l-20-40l20-40h54.112l20,40L219.542,384z"/>
	<path style="fill:#333333;" d="M470.23,358.104c-11.544-11.544-25.112-19.864-38.176-23.44c-3.576-0.976-7.016-1.56-10.312-1.792
		c1.736-3.944,2.744-8.288,2.744-12.872c0-6.848-2.2-13.16-5.872-18.368l1.712-3.432c6.336-12.68,17.232-22.128,30.688-26.616
		l-5.064-15.168c-17.504,5.84-31.688,18.136-39.936,34.632l-0.024,0.048c-4.112-1.936-8.664-3.096-13.504-3.096
		c-2.776,0-5.432,0.464-8,1.136V178.248c0-24.136-11.984-46.528-32.064-59.904l-15.936-10.624V96h8c13.232,0,24-10.768,24-24V24
		c0-13.232-10.768-24-24-24h-304c-13.232,0-24,10.768-24,24v48c0,13.232,10.768,24,24,24h8v11.72L32.55,118.344
		C12.47,131.728,0.486,154.12,0.486,178.248V456c0,22.056,17.944,40,40,40h304c11.72,0,22.552-5.112,30.048-13.688
		c5.552,3.648,11.6,5.688,17.952,5.688c21.352,0,39.496-22.64,45.696-55.312c9.32,4.736,18.616,7.272,26.976,7.272
		c8.72,0,16.416-2.696,22.04-8.32C503.054,415.776,495.606,383.472,470.23,358.104z M316.158,420.328
		c-8.024-8.032-3.032-30.912,16.968-50.912c9.472-9.472,20.808-16.504,31.08-19.312c8.744-2.368,15.96-1.52,19.832,2.344
		c3.864,3.864,4.728,11.104,2.344,19.832c-2.808,10.272-9.848,21.608-19.312,31.08C347.062,423.368,324.198,428.336,316.158,420.328
		z M396.022,390.616c1.728,3.336,3.712,6.624,5.96,9.864c-3.896-0.272-7.792-0.36-11.72-0.296
		C392.43,397.04,394.342,393.856,396.022,390.616z M408.486,320c0,8.816-7.184,16-16,16c-8.824,0-16-7.184-16-16
		c0-8.824,7.176-16,16-16C401.302,304,408.486,311.176,408.486,320z M352.486,24v24h-32V16h24C348.902,16,352.486,19.584,352.486,24
		z M80.486,48V16h32v32H80.486z M128.486,16h32v32h-32V16z M176.486,16h32v32h-32V16z M224.486,16h32v32h-32V16z M272.486,16h32v32
		h-32V16z M40.486,16h24v32h-32V24C32.486,19.584,36.07,16,40.486,16z M32.486,72v-8h320v8c0,4.416-3.584,8-8,8h-304
		C36.07,80,32.486,76.416,32.486,72z M344.486,480h-304c-13.232,0-24-10.768-24-24V178.248c0-18.768,9.32-36.184,24.936-46.592
		l23.064-15.376V96h256v20.28l23.064,15.376c15.616,10.408,24.936,27.824,24.936,46.592v97.504
		c-7.896-8.8-17.936-15.496-29.472-19.336l-5.064,15.168c13.456,4.496,24.352,13.936,30.688,26.616l1.712,3.432
		c-3.664,5.208-5.864,11.52-5.864,18.368c0,4.968,1.24,9.624,3.264,13.824c-1.24,0.256-2.48,0.488-3.76,0.84
		c-13.072,3.568-26.632,11.888-38.176,23.44c-25.376,25.368-32.832,57.672-16.968,73.536c5.624,5.624,13.32,8.32,22.04,8.32
		c6.416,0,13.392-1.528,20.496-4.344c3.104,14.44,8.52,26.696,15.512,35.712C358.39,476.744,351.726,480,344.486,480z M392.486,472
		c-8.944,0-17.544-8.36-23.576-21.528c14.816-3.128,32.248-3.16,47.112-0.016C410.022,463.584,401.47,472,392.486,472z
		 M421.27,435.272c-18.096-4.16-39.504-4.184-57.568-0.056c-0.592-2.384-1.128-4.832-1.56-7.36c4.576-3,9.08-6.528,13.424-10.576
		c14.008-2.056,29.64-1.416,42.808,1.744c1.688,1.496,3.4,2.896,5.128,4.24C422.958,427.432,422.214,431.456,421.27,435.272z
		 M475.886,420.328c-8.032,8.008-30.904,3.032-50.912-16.968c-9.464-9.472-16.504-20.808-19.312-31.08
		c-2.384-8.736-1.52-15.968,2.344-19.832c2.432-2.432,6.168-3.672,10.792-3.672c2.744,0,5.792,0.448,9.048,1.328
		c10.272,2.808,21.608,9.84,31.08,19.312C478.918,389.416,483.91,412.296,475.886,420.328z"/>
</g>
<g>
</g>
<g>
</g>
<g>
</g>
<g>
</g>
<g>
</g>
<g>
</g>
<g>
</g>
<g>
</g>
<g>
</g>
<g>
</g>
<g>
</g>
<g>
</g>
<g>
</g>
<g>
</g>
<g>
</g>
</svg>
