<?xml version="1.0" encoding="iso-8859-1"?>
<!-- Generator: Adobe Illustrator 19.0.0, SVG Export Plug-In . SVG Version: 6.00 Build 0)  -->
<svg version="1.1" id="Capa_1" xmlns="http://www.w3.org/2000/svg" xmlns:xlink="http://www.w3.org/1999/xlink" x="0px" y="0px"
	 viewBox="0 0 496 496" style="enable-background:new 0 0 496 496;" xml:space="preserve">
<g>
	<path style="fill:#FFA64D;" d="M344.088,351.4L320,347.688V432c0,4.416-3.584,8-8,8H184c-4.416,0-8-3.584-8-8v-84.312
		l-24.088,3.704c-8.392,1.288-16.408,3.752-23.912,7.184V488h120h120V358.584C360.504,355.152,352.48,352.688,344.088,351.4z"/>
	<path style="fill:#FFA64D;" d="M408,112h-48h-16H88c-4.416,0-8,3.584-8,8v16c0,4.416,3.584,8,8,8h320c4.416,0,8-3.584,8-8v-16
		C416,115.584,412.416,112,408,112z"/>
</g>
<g>
	<path style="fill:#333333;" d="M424.504,411.608c-6.464-20.704-19.672-38.352-36.808-50.672
		c13.704-15.52,19.192-28.624,19.728-29.968l0.576-1.432V160c0-2.68-0.288-5.328-0.416-8H408c8.816,0,16-7.184,16-16v-16
		c0-8.824-7.184-16-16-16h-10.208C374.496,41.592,315.096,0,248,0C180.92,0,121.52,41.592,98.208,104H88c-8.824,0-16,7.176-16,16v16
		c0,8.816,7.176,16,16,16h0.296C88.16,154.656,88,157.312,88,160v169.536l0.568,1.432c0.536,1.352,6.024,14.448,19.728,29.968
		c-17.136,12.32-30.344,29.968-36.808,50.672L45.12,496h405.76L424.504,411.608z M409.24,416.376L429.12,480H376V372.72
		c0.08-0.072,0.168-0.152,0.248-0.224C391.64,382.856,403.552,398.192,409.24,416.376z M152,152h192v80c0,52.936-43.064,96-96,96
		s-96-43.064-96-96V152z M248,344c14.104,0,27.56-2.728,40-7.512v6.344C286.624,347,278.216,368,248,368
		c-30.208,0-38.592-20.896-40-25.168v-6.344C220.44,341.272,233.896,344,248,344z M194.768,352.896
		C201.056,366.336,217.184,384,248,384s46.944-17.664,53.232-31.104L312,354.552v36.096c-17.624,5.664-38.696,9.352-64,9.352
		s-46.376-3.688-64-9.352v-36.096L194.768,352.896z M328,384.656v-27.64l14.872,2.288c6.288,0.968,12.288,2.832,18.072,5.168
		C352.216,371.656,341.432,378.728,328,384.656z M184,407.456c18.064,5.248,39.208,8.544,64,8.544s45.936-3.296,64-8.544V424
		c0,4.416-3.584,8-8,8H192c-4.416,0-8-3.584-8-8V407.456z M168,384.656c-13.432-5.928-24.216-13-32.952-20.184
		c5.784-2.336,11.792-4.208,18.08-5.168L168,357.016V384.656z M168,402.016V424c0,13.232,10.768,24,24,24h112
		c13.232,0,24-10.768,24-24v-21.984c12.344-4.864,22.952-10.632,32-16.784V480H136v-94.768
		C145.048,391.376,155.656,397.152,168,402.016z M392,160v166.328c-1.712,3.712-7.208,14.248-18.288,26.208
		c-8.856-4.376-18.4-7.504-28.4-9.04L304,337.136v-8.288c33.416-19.4,56-55.496,56-96.848v-80h31.584
		C391.728,154.672,392,157.32,392,160z M88,120h256v-16H115.296C137.64,50.936,189.624,16,248,16s110.368,34.928,132.704,88H360v16
		h48v16H88V120z M104,326.336V160c0-2.696,0.144-5.344,0.288-8H136v80c0,41.344,22.584,77.448,56,96.848v8.288l-41.312,6.352
		c-10,1.536-19.544,4.664-28.4,9.048C111.192,340.568,105.696,330.024,104,326.336z M86.76,416.376
		c5.688-18.184,17.608-33.52,32.992-43.88c0.08,0.072,0.168,0.152,0.248,0.224V480H66.88L86.76,416.376z"/>
	<path style="fill:#333333;" d="M216,192c0-13.232-10.768-24-24-24s-24,10.768-24,24s10.768,24,24,24S216,205.232,216,192z M184,192
		c0-4.416,3.584-8,8-8s8,3.584,8,8s-3.584,8-8,8S184,196.416,184,192z"/>
	<path style="fill:#333333;" d="M304,216c13.232,0,24-10.768,24-24s-10.768-24-24-24s-24,10.768-24,24S290.768,216,304,216z
		 M304,184c4.416,0,8,3.584,8,8s-3.584,8-8,8s-8-3.584-8-8S299.584,184,304,184z"/>
	<path style="fill:#333333;" d="M192,256c0,30.872,25.128,56,56,56s56-25.128,56-56h-16c0,22.056-17.944,40-40,40s-40-17.944-40-40
		H192z"/>
</g>
<g>
</g>
<g>
</g>
<g>
</g>
<g>
</g>
<g>
</g>
<g>
</g>
<g>
</g>
<g>
</g>
<g>
</g>
<g>
</g>
<g>
</g>
<g>
</g>
<g>
</g>
<g>
</g>
<g>
</g>
</svg>
