<?xml version="1.0" encoding="UTF-8"?>
<svg width="128px" height="137px" viewBox="0 0 135 137" version="1.1" xmlns="http://www.w3.org/2000/svg" xmlns:xlink="http://www.w3.org/1999/xlink">
    <!-- Generator: Sketch 56.1 (81669) - https://sketch.com -->
    <title>beekeeper_simple</title>
    <desc>Created with Sketch.</desc>
    <defs>
        <filter x="0px" y="0px" width="100.0%" height="100%" filterUnits="objectBoundingBox" id="filter-1">
            <feOffset dx="0" dy="2" in="SourceAlpha" result="shadowOffsetOuter1"></feOffset>
            <feGaussianBlur stdDeviation="2" in="shadowOffsetOuter1" result="shadowBlurOuter1"></feGaussianBlur>
            <feColorMatrix values="0 0 0 0 0   0 0 0 0 0   0 0 0 0 0  0 0 0 0.5 0" type="matrix" in="shadowBlurOuter1" result="shadowMatrixOuter1"></feColorMatrix>
            <feMerge>
                <feMergeNode in="shadowMatrixOuter1"></feMergeNode>
                <feMergeNode in="SourceGraphic"></feMergeNode>
            </feMerge>
        </filter>
    </defs>
    <g id="Beekeeper" stroke="none" stroke-width="1" fill="none" fill-rule="evenodd">
        <g id="beekeeper_simple" filter="url(#filter-1)" transform="translate(4.000000, 3.000000)" fill-rule="nonzero">
            <path d="M65,96.0921143 L65,126 L55,126 L55,96 C56.6003419,96.0460573 58.2751466,96.0921143 60,96.0921143 C61.7248534,96.0921143 63.3996581,96.0460573 65,96 L65,96.0921143 Z" id="Path" fill="#F0BC5E"></path>
            <polygon id="Path" fill="#F0BC5E" points="27 107.021596 25.7007918 116 24.4719672 115.845591 5.56768238 115.845591 5 115.757048 6.7722767 107 26.8350028 107"></polygon>
            <polygon id="Path-Right" fill="#F0BC5E" points="116 107.021596 114.700792 116 113.471967 115.845591 94.5676824 115.845591 94 115.757048 95.7722767 107 115.835003 107"></polygon>
            <polygon id="Path" fill="#000000" points="94 41 98 41 98 72 94 72"></polygon>
            <path d="M92.3135102,32 C90.1336401,16.3394377 76.025678,4.52878172 59.5,4.52878172 C42.9731675,4.52878172 28.8663599,16.3394377 26.6864898,32 L22,31.4007326 C24.4893008,13.5001039 40.6143355,0 59.5,0 C78.3856645,0 94.5106992,13.5001039 97,31.4029441 L92.3135102,32 Z" id="Path" stroke="#979797" fill="#000000"></path>
            <path d="M83.25,40 L83.25,56.2105263 C83.25,68.9801603 72.5961303,79.3684211 59.5,79.3684211 C46.4038697,79.3684211 35.75,68.9801603 35.75,56.2105263 L35.75,40 L31,40 L31,56.2105263 C31,71.5345395 43.7841797,84 59.5,84 C75.2158203,84 88,71.5345395 88,56.2105263 L88,40 L83.25,40 Z" id="Path" fill="#000000"></path>
            <path d="M31.0178572,93.3806538 C36.9134123,95.818809 46.1585302,98.2368421 59.688592,98.2368421 C65.7957347,98.2368421 71.5236382,97.7404914 76.7185251,96.757851 L75.8074254,92.2638645 C70.9154678,93.1883738 65.4904932,93.6578947 59.688592,93.6578947 C38.8928573,93.6578947 29.0881296,87.6088995 26.5375128,85.7252262 L26.5375128,41 L21.8016444,41 L21.8016444,82.540309 C13.0305757,85.6726844 6.52106886,93.1704873 5.06539047,102.117098 L0,128 L81,128 L81,123.421053 L26.8739723,123.421053 L31.0178572,93.3806538 Z M9.72726097,102.898515 C10.8383866,96.0893427 15.4505396,90.3041735 21.8016444,87.4400955 L21.8016444,87.7374589 L22.4953751,88.4082031 C22.6352774,88.5434698 23.9163668,89.721744 26.5375128,91.2107962 L22.0953239,123.421053 L5.71634121,123.421053 L9.72726097,102.898515 Z" id="Shape" fill="#000000"></path>
            <path d="M88.9821428,93.3806538 C83.0865877,95.818809 73.8414698,98.2368421 60.311408,98.2368421 C54.2042653,98.2368421 48.4763618,97.7404914 43.2814749,96.757851 L44.1925746,92.2638645 C49.0845322,93.1883738 54.5095068,93.6578947 60.311408,93.6578947 C81.1071427,93.6578947 90.9118704,87.6088995 93.4624872,85.7252262 L93.4624872,41 L98.1983556,41 L98.1983556,82.540309 C106.969424,85.6726844 113.478931,93.1704873 114.93461,102.117098 L120,128 L39,128 L39,123.421053 L93.1260277,123.421053 L88.9821428,93.3806538 Z M110.361723,103.875665 C109.25337,97.1058429 104.652722,91.3541057 98.3174609,88.5065789 L98.3174609,88.8022239 L97.6254607,89.469092 C97.4859074,89.603577 96.2080139,90.775042 93.5934066,92.2554892 L98.024514,124.279605 L114.362637,124.279605 L110.361723,103.875665 Z" id="Shape-Right" fill="#000000"></path>
            <path d="M12,44 L107,44 C107,36.2674153 100.620667,30 92.75,30 L26.25,30 C18.3793334,30 12,36.2674153 12,44 Z" id="Path" fill="#F0BC5E"></path>
        </g>
    </g>
</svg>
