<?xml version="1.0" encoding="iso-8859-1"?>
<!-- Generator: Adobe Illustrator 19.0.0, SVG Export Plug-In . SVG Version: 6.00 Build 0)  -->
<svg version="1.1" id="Capa_1" xmlns="http://www.w3.org/2000/svg" xmlns:xlink="http://www.w3.org/1999/xlink" x="0px" y="0px"
	 viewBox="0 0 496 496" style="enable-background:new 0 0 496 496;" xml:space="preserve">
<g>
	<path style="fill:#FFA64D;" d="M400,112h-19.792C365.824,52.328,312.088,8,248,8S130.176,52.328,115.784,112H104h-8
		c-17.672,0-32,14.328-32,32h368C432,126.328,417.672,112,400,112z"/>
	<path style="fill:#FFA64D;" d="M168,400v48h64c0-8.84,7.16-16,16-16s16,7.16,16,16h64v-48H168z"/>
</g>
<g>
	<path style="fill:#333333;" d="M150.688,343.488c-36.952,5.688-68.048,32.424-79.192,68.12L45.12,496h405.76l-26.376-84.392
		c-11.152-35.696-42.24-62.432-79.192-68.12L304,337.136v-8.288c26.92-15.624,46.784-42.072,53.488-73.4
		C376.928,252.736,392,236.176,392,216v-64h48v-8c0-22.056-17.944-40-40-40h-13.76C368.536,42.488,312.656,0,248,0
		c-64.648,0-120.528,42.48-138.232,104H96c-22.056,0-40,17.944-40,40v8h48v64c0,20.176,15.072,36.736,34.512,39.448
		c6.704,31.328,26.568,57.776,53.488,73.4v8.288L150.688,343.488z M288,342.832C286.624,347,278.216,368,248,368
		c-30.2,0-38.592-20.896-40-25.168v-6.344c12.44,4.784,25.896,7.512,40,7.512s27.56-2.728,40-7.512V342.832z M71.88,464h51.056
		l-2,16H66.88L71.88,464z M240,448c0-4.416,3.584-8,8-8c4.416,0,8,3.584,8,8s-3.584,8-8,8S240,452.416,240,448z M375.064,480l-2-16
		h51.056l5,16H375.064z M409.24,416.376L419.12,448h-48.056l-3.128-24.992l-15.872,1.984L358.936,480H256v-9.472
		c9.288-3.312,16-12.112,16-22.528c0-13.232-10.768-24-24-24s-24,10.768-24,24c0,10.416,6.712,19.216,16,22.528V480H137.064
		l6.872-55.008l-15.872-1.984L124.936,448H76.88l9.88-31.624c9.352-29.896,35.4-52.304,66.368-57.072l16.232-2.496L187.872,400h17.4
		l-19.584-45.704l9.08-1.4C201.056,366.336,217.184,384,248,384s46.944-17.664,53.232-31.104l9.08,1.4L290.728,400h17.4
		l18.512-43.192l16.232,2.496C373.84,364.072,399.888,386.48,409.24,416.376z M359.664,238.632C359.792,236.424,360,234.24,360,232
		v-38.528c9.288,3.312,16,12.112,16,22.528C376,226.536,369.128,235.416,359.664,238.632z M376,184.208
		c-4.672-3.536-10.056-6.184-16-7.392V152h16V184.208z M96,120h232v-16H126.392C143.48,51.712,192.088,16,248,16
		c55.92,0,104.528,35.704,121.608,88H344v16h56c10.432,0,19.328,6.688,22.632,16H73.368C76.672,126.688,85.568,120,96,120z M136,152
		v24.808c-5.944,1.216-11.328,3.856-16,7.392V152H136z M120,216c0-10.416,6.712-19.216,16-22.528V232
		c0,2.24,0.208,4.424,0.336,6.632C126.872,235.416,120,226.536,120,216z M152,232v-80h192v80c0,52.936-43.064,96-96,96
		S152,284.936,152,232z"/>
	<path style="fill:#333333;" d="M296,264h-16c0,8.816-7.184,16-16,16h-32c-8.824,0-16-7.184-16-16h-16c0,17.648,14.352,32,32,32h32
		C281.648,296,296,281.648,296,264z"/>
	<path style="fill:#333333;" d="M216,192c0-13.232-10.768-24-24-24s-24,10.768-24,24s10.768,24,24,24S216,205.232,216,192z M192,200
		c-4.416,0-8-3.584-8-8s3.584-8,8-8s8,3.584,8,8S196.416,200,192,200z"/>
	<path style="fill:#333333;" d="M304,216c13.232,0,24-10.768,24-24s-10.768-24-24-24s-24,10.768-24,24S290.768,216,304,216z
		 M304,184c4.416,0,8,3.584,8,8s-3.584,8-8,8s-8-3.584-8-8S299.584,184,304,184z"/>
</g>
<g>
</g>
<g>
</g>
<g>
</g>
<g>
</g>
<g>
</g>
<g>
</g>
<g>
</g>
<g>
</g>
<g>
</g>
<g>
</g>
<g>
</g>
<g>
</g>
<g>
</g>
<g>
</g>
<g>
</g>
</svg>
