<?xml version="1.0" encoding="iso-8859-1"?>
<!-- Generator: Adobe Illustrator 19.0.0, SVG Export Plug-In . SVG Version: 6.00 Build 0)  -->
<svg version="1.1" id="Capa_1" xmlns="http://www.w3.org/2000/svg" xmlns:xlink="http://www.w3.org/1999/xlink" x="0px" y="0px"
	 viewBox="0 0 495.216 495.216" style="enable-background:new 0 0 495.216 495.216;" xml:space="preserve">
<g>
	<polygon style="fill:#333333;" points="328.256,495.216 258.08,393.848 271.232,384.752 326.96,465.232 354.648,416.784 
		410.064,409.864 369.416,346.088 382.912,337.496 437.152,422.6 364.568,431.672 	"/>
	<polygon style="fill:#333333;" points="168.008,495.216 131.696,431.672 59.104,422.6 113.352,337.496 126.848,346.088 
		86.2,409.864 141.616,416.784 169.304,465.232 225.032,384.752 238.184,393.848 	"/>
</g>
<path style="fill:#FFA64D;" d="M247.608,400c-30.872,0-56-25.128-56-56c0-0.912,0.024-1.84,0.08-2.792
	c-1.472-0.584-2.936-1.192-4.4-1.832c-0.592,0.68-1.232,1.368-1.904,2.04c-21.824,21.832-57.352,21.824-79.192,0
	c-21.832-21.832-21.832-57.368,0-79.192c0.672-0.672,1.36-1.312,2.04-1.904c-0.632-1.464-1.24-2.928-1.832-4.4
	c-0.952,0.056-1.88,0.08-2.792,0.08c-30.872,0-56-25.128-56-56s25.128-56,56-56c0.912,0,1.84,0.024,2.792,0.08
	c0.584-1.472,1.192-2.936,1.832-4.4c-0.68-0.592-1.368-1.232-2.04-1.904c-21.832-21.832-21.832-57.36,0-79.192
	c21.84-21.832,57.368-21.832,79.192,0c0.672,0.672,1.312,1.36,1.904,2.04c1.464-0.632,2.928-1.24,4.4-1.832
	c-0.056-0.952-0.08-1.888-0.08-2.792c0-30.872,25.128-56,56-56s56,25.128,56,56c0,0.912-0.024,1.84-0.08,2.792
	c1.472,0.584,2.936,1.192,4.4,1.832c0.592-0.68,1.232-1.368,1.904-2.04c21.824-21.84,57.352-21.824,79.192,0
	c21.832,21.832,21.832,57.368,0,79.192c-0.672,0.672-1.36,1.312-2.04,1.904c0.632,1.464,1.24,2.928,1.832,4.4
	c0.952-0.056,1.88-0.08,2.792-0.08c30.872,0,56,25.128,56,56s-25.128,56-56,56c-0.912,0-1.84-0.024-2.792-0.08
	c-0.584,1.472-1.192,2.936-1.832,4.4c0.68,0.592,1.368,1.232,2.04,1.904c21.832,21.832,21.832,57.36,0,79.192
	c-21.84,21.832-57.368,21.832-79.192,0c-0.672-0.672-1.312-1.36-1.904-2.04c-1.464,0.632-2.928,1.24-4.4,1.832
	c0.056,0.952,0.08,1.88,0.08,2.792C303.608,374.872,278.48,400,247.608,400z"/>
<g>
	<polygon style="fill:#333333;" points="299.976,80 195.24,80 118.096,200 195.24,320 299.976,320 318.336,291.44 304.88,282.776 
		291.24,304 203.976,304 137.112,200 203.976,96 291.24,96 358.096,200 314.592,267.672 328.048,276.328 377.112,200 	"/>
	<path style="fill:#333333;" d="M167.608,228.232c0,7.512,2.592,13.92,7.504,18.544c4.888,4.616,11.536,6.832,18.984,6.832
		c8.464,0,17.936-2.92,27.04-8.36c6.192,11.704,15.84,18.744,26.584,18.744c10.792,0,20.368-6.976,26.552-18.624
		c9.048,5.368,18.44,8.24,26.84,8.24c7.448,0,14.096-2.208,18.984-6.832c4.912-4.624,7.512-11.032,7.512-18.544
		c0-12.496-7.296-26.832-19.52-38.344c-8.568-8.072-18.224-13.416-27.52-16.096c0.368-1.912,0.624-3.848,0.624-5.8
		c0-10.64-5.512-20.008-13.888-25.832l12.416-17.552l-13.064-9.232l-14.864,21.008c-1.352-0.16-2.68-0.392-4.08-0.392
		c-1.392,0-2.712,0.232-4.064,0.392l-14.872-21.016l-13.064,9.248l12.416,17.544c-8.376,5.824-13.888,15.192-13.888,25.832
		c0,1.936,0.248,3.848,0.608,5.744c-9.368,2.656-19.112,8.016-27.744,16.16C174.904,201.408,167.608,215.744,167.608,228.232z
		 M247.728,248c-5.128,0-10.264-4.8-13.64-12.504c0.008-0.008,0.016-0.016,0.024-0.016c5.648-5.32,10.192-11.256,13.504-17.328
		c3.312,6.072,7.848,12,13.504,17.328c0.056,0.048,0.112,0.096,0.16,0.144C257.904,243.152,252.792,248,247.728,248z
		 M311.608,228.232c0,3.032-0.832,5.352-2.48,6.904c-5.928,5.576-23.008,1.92-37.056-11.312
		c-8.928-8.424-14.488-18.648-14.488-26.704c0-3.032,0.832-5.36,2.48-6.912c1.776-1.672,4.552-2.504,7.96-2.504
		c7.936,0,19.264,4.568,29.096,13.832C307.8,211.592,311.608,221.92,311.608,228.232z M265.192,168c0,1.416-0.216,2.792-0.6,4.128
		c-5.992,0.608-11.4,2.592-15.488,6.448c-0.568,0.528-0.992,1.168-1.488,1.744c-0.504-0.576-0.928-1.216-1.496-1.744
		c-4.04-3.808-9.352-5.784-15.248-6.424c-0.392-1.336-0.608-2.728-0.608-4.152c0-8.824,7.832-16,17.464-16
		C257.36,152,265.192,159.176,265.192,168z M227.184,187.704c3.408,0,6.184,0.832,7.96,2.504c1.64,1.552,2.48,3.88,2.48,6.912
		c0,8.056-5.552,18.28-14.488,26.704c-14.04,13.232-31.144,16.888-37.056,11.312c-1.64-1.552-2.48-3.872-2.48-6.904
		c0-6.312,3.808-16.64,14.48-26.704C207.92,192.28,219.248,187.704,227.184,187.704z"/>
	<path style="fill:#333333;" d="M247.608,48c-83.816,0-152,68.184-152,152s68.184,152,152,152s152-68.184,152-152
		S331.424,48,247.608,48z M247.608,336c-74.992,0-136-61.008-136-136s61.008-136,136-136s136,61.008,136,136S322.6,336,247.608,336z
		"/>
</g>
<g>
</g>
<g>
</g>
<g>
</g>
<g>
</g>
<g>
</g>
<g>
</g>
<g>
</g>
<g>
</g>
<g>
</g>
<g>
</g>
<g>
</g>
<g>
</g>
<g>
</g>
<g>
</g>
<g>
</g>
</svg>
