<?xml version="1.0" encoding="iso-8859-1"?>
<!-- Generator: Adobe Illustrator 19.0.0, SVG Export Plug-In . SVG Version: 6.00 Build 0)  -->
<svg version="1.1" id="Capa_1" xmlns="http://www.w3.org/2000/svg" xmlns:xlink="http://www.w3.org/1999/xlink" x="0px" y="0px"
	 viewBox="0 0 496 496" style="enable-background:new 0 0 496 496;" xml:space="preserve">
<path style="fill:#FFA64D;" d="M248,63.9c9.592,0,18.944,2.96,26.792,8.48l174.912,123.088c4.096,2.888,8.984,4.432,13.992,4.432
	l0,0c13.424,0,24.304-10.88,24.304-24.304v-2.816c0-8.056-3.992-15.592-10.656-20.112L277.24,16.884
	C268.608,11.028,258.424,7.9,248,7.9l0,0c-10.424,0-20.616,3.128-29.24,8.984L18.656,152.668C11.992,157.188,8,164.724,8,172.78
	v2.816C8,189.02,18.88,199.9,32.304,199.9l0,0c5.008,0,9.896-1.544,13.984-4.424L221.208,72.38C229.048,66.86,238.408,63.9,248,63.9
	L248,63.9z"/>
<g>
	<path style="fill:#333333;" d="M481.832,146.052L281.736,10.26C261.72-3.284,234.28-3.292,214.264,10.268L14.168,146.052
		C5.296,152.068,0,162.068,0,172.78v2.816C0,193.404,14.496,207.9,32.304,207.9c5.56,0,10.896-1.48,15.696-4.168V495.9h400V203.732
		c4.8,2.688,10.144,4.168,15.696,4.168c17.808,0,32.304-14.496,32.304-32.304v-2.816C496,162.068,490.704,152.068,481.832,146.052z
		 M64,192.788l16-11.256V479.9H64V192.788z M96,431.9h72v-16H96v-48h72v-16H96v-48h16v-16H96v-48h81.104
		c4.712,3.72,10.688,5.616,17.384,5.616c8.456,0,17.936-2.92,27.04-8.36c6.2,11.704,15.848,18.744,26.592,18.744
		c10.792,0,20.368-6.976,26.552-18.624c9.048,5.368,18.44,8.24,26.84,8.24c6.696,0,12.672-1.896,17.384-5.616H400v48H128v16h272v48
		h-72v16h72v48h-16v16h16v48H96V431.9z M230.648,159.9c0-8.824,7.832-16,17.464-16c9.632,0,17.472,7.176,17.472,16
		c0,1.416-0.216,2.792-0.6,4.128c-5.992,0.608-11.4,2.592-15.488,6.448c-0.568,0.528-0.992,1.168-1.496,1.744
		c-0.504-0.576-0.928-1.216-1.496-1.744c-4.04-3.808-9.352-5.784-15.248-6.424C230.864,162.708,230.648,161.324,230.648,159.9z
		 M248,210.052c3.312,6.072,7.848,12,13.504,17.328c0.056,0.048,0.112,0.096,0.16,0.144c-3.368,7.536-8.48,12.376-13.544,12.376
		c-5.128,0-10.264-4.8-13.64-12.504c0.008-0.008,0.016-0.016,0.024-0.016C240.152,222.052,244.688,216.124,248,210.052z
		 M272.472,215.732c-8.928-8.424-14.488-18.648-14.488-26.704c0-3.032,0.832-5.36,2.48-6.912c1.776-1.672,4.552-2.504,7.96-2.504
		c7.936,0,19.264,4.568,29.096,13.832C308.192,203.5,312,213.828,312,220.14c0,3.032-0.832,5.352-2.48,6.904
		C303.6,232.628,286.52,228.972,272.472,215.732z M227.576,179.612c3.408,0,6.184,0.832,7.96,2.504c1.64,1.552,2.48,3.88,2.48,6.912
		c0,8.056-5.552,18.28-14.488,26.704c-14.04,13.232-31.144,16.888-37.056,11.312c-1.64-1.552-2.472-3.872-2.472-6.904
		c0-6.312,3.808-16.64,14.48-26.704C208.312,184.18,219.64,179.612,227.576,179.612z M400,223.9h-72.336
		c0.16-1.232,0.336-2.456,0.336-3.76c0-12.496-7.296-26.832-19.52-38.344c-8.568-8.072-18.224-13.416-27.52-16.096
		c0.368-1.912,0.624-3.848,0.624-5.8c0-10.64-5.512-20.008-13.888-25.832l12.416-17.552l-13.064-9.232l-14.864,21.008
		c-1.344-0.16-2.672-0.392-4.064-0.392s-2.712,0.232-4.064,0.392l-14.872-21.016l-13.064,9.248l12.416,17.544
		c-8.376,5.824-13.888,15.192-13.888,25.832c0,1.936,0.248,3.848,0.608,5.744c-9.368,2.656-19.104,8.016-27.744,16.16
		C175.296,193.308,168,207.644,168,220.14c0,1.304,0.176,2.528,0.336,3.76H96v-53.632l129.816-91.344
		c13.048-9.184,31.304-9.184,44.368,0L400,170.268V223.9z M416,479.9V181.532l16,11.256V479.9H416z M480,175.596
		c0,8.992-7.312,16.304-16.304,16.304c-3.376,0-6.616-1.024-9.384-2.968L279.4,65.844C270.152,59.34,259.304,55.9,248,55.9
		s-22.16,3.44-31.392,9.944L41.68,188.932c-2.76,1.944-6,2.968-9.376,2.968C23.312,191.9,16,184.588,16,175.596v-2.816
		c0-5.416,2.672-10.464,7.152-13.504L223.248,23.508c14.672-9.952,34.824-9.944,49.504-0.008l200.104,135.784
		c4.472,3.04,7.144,8.088,7.144,13.496V175.596z"/>
	<rect x="328" y="415.9" style="fill:#333333;" width="40" height="16"/>
</g>
<path style="fill:#FFA64D;" d="M336,495.9h-48v-128h-80v128h-48v-176h176V495.9z"/>
<g>
</g>
<g>
</g>
<g>
</g>
<g>
</g>
<g>
</g>
<g>
</g>
<g>
</g>
<g>
</g>
<g>
</g>
<g>
</g>
<g>
</g>
<g>
</g>
<g>
</g>
<g>
</g>
<g>
</g>
</svg>
